<?xml version="1.0" encoding="UTF-8"?><svg xmlns="http://www.w3.org/2000/svg" width="720" height="1280" viewBox="0 0 720 1280"><rect width="720" height="1280" fill="#e8e8e8"/><rect x="180" y="40" width="360" height="1200" rx="36" fill="#0c0c0c"/><rect x="196" y="72" width="328" height="1136" rx="24" fill="#fafafa"/><rect x="300" y="88" width="80" height="10" rx="5" fill="#222"/><text x="220" y="140" font-family="Georgia, serif" font-size="22" fill="#5a252c">SENDA</text><text x="220" y="164" font-family="Arial, sans-serif" font-size="11" fill="#888">Mobile · senda</text><g transform="translate(196,0)"><rect x="36" y="180" width="248" height="54" rx="6" fill="#f4f4f4"/><circle cx="64" cy="207" r="12" fill="#5a252c"/><text x="90" y="212" font-family="Arial, sans-serif" font-size="14" fill="#1a1a1a">Hoy</text><rect x="36" y="250" width="248" height="54" rx="6" fill="#f4f4f4"/><circle cx="64" cy="277" r="12" fill="#5a252c"/><text x="90" y="282" font-family="Arial, sans-serif" font-size="14" fill="#1a1a1a">Citas</text><rect x="36" y="320" width="248" height="54" rx="6" fill="#f4f4f4"/><circle cx="64" cy="347" r="12" fill="#5a252c"/><text x="90" y="352" font-family="Arial, sans-serif" font-size="14" fill="#1a1a1a">WhatsApp</text></g><rect x="220" y="420" width="280" height="120" fill="#fff" stroke="#ddd"/><rect x="220" y="420" width="8" height="120" fill="#5a252c"/><text x="244" y="470" font-family="Arial, sans-serif" font-size="13" fill="#444">Scheduling SaaS</text><rect x="244" y="490" width="160" height="24" fill="#5a252c"/><rect x="260" y="1120" width="200" height="6" rx="3" fill="#ccc"/></svg>