<?xml version="1.0" encoding="UTF-8"?><svg xmlns="http://www.w3.org/2000/svg" width="1280" height="800" viewBox="0 0 1280 800"><rect width="1280" height="800" fill="#ececec"/><rect x="80" y="48" width="1120" height="704" rx="10" fill="#0c0c0c"/><rect x="88" y="56" width="1104" height="40" fill="#1a1a1a"/><circle cx="112" cy="76" r="6" fill="#722f37"/><circle cx="132" cy="76" r="6" fill="#666"/><circle cx="152" cy="76" r="6" fill="#444"/><rect x="180" y="66" width="880" height="20" rx="4" fill="#2a2a2a"/><rect x="88" y="96" width="1104" height="648" fill="#fafafa"/><rect x="88" y="96" width="220" height="648" fill="#f0f0f0"/><text x="118" y="140" font-family="Georgia, serif" font-size="22" fill="#8b3a42">Framboyan</text><text x="118" y="168" font-family="Arial, sans-serif" font-size="12" fill="#777">E-commerce artesanal</text><rect x="118" y="200" width="160" height="28" fill="#8b3a42"/><rect x="118" y="248" width="140" height="10" fill="#ddd"/><rect x="118" y="268" width="120" height="10" fill="#ddd"/><rect x="118" y="288" width="150" height="10" fill="#ddd"/><g transform="translate(340, 120)"><text x="48" y="36" font-family="Georgia, serif" font-size="28" fill="#0c0c0c">Desktop</text><text x="48" y="62" font-family="Arial, sans-serif" font-size="13" fill="#666">Vista principal · fram</text><rect x="48" y="110" width="520" height="40" fill="#f3f3f3"/><rect x="48" y="110" width="6" height="40" fill="#8b3a42"/><text x="68" y="136" font-family="Georgia, serif" font-size="14" fill="#1a1a1a">Catalogo</text><rect x="400" y="122" width="140" height="16" fill="#e5e5e5"/><rect x="48" y="162" width="520" height="40" fill="#f3f3f3"/><rect x="48" y="162" width="6" height="40" fill="#8b3a42"/><text x="68" y="188" font-family="Georgia, serif" font-size="14" fill="#1a1a1a">Producto</text><rect x="400" y="174" width="140" height="16" fill="#e5e5e5"/><rect x="48" y="214" width="520" height="40" fill="#f3f3f3"/><rect x="48" y="214" width="6" height="40" fill="#8b3a42"/><text x="68" y="240" font-family="Georgia, serif" font-size="14" fill="#1a1a1a">Checkout</text><rect x="400" y="226" width="140" height="16" fill="#e5e5e5"/><rect x="48" y="280" width="250" height="140" fill="#fff" stroke="#ddd"/><rect x="48" y="280" width="250" height="8" fill="#8b3a42"/><rect x="318" y="280" width="250" height="140" fill="#fff" stroke="#ddd"/><rect x="318" y="280" width="250" height="8" fill="#bbb"/></g></svg>